<?xml version="1.0" encoding="UTF-8" standalone="no"?>
<!-- Created with Inkscape (http://www.inkscape.org/) -->

<svg
   width="180.05528mm"
   height="62.641666mm"
   viewBox="0 0 180.05529 62.641666"
   version="1.1"
   id="svg1"
   inkscape:version="1.4 (e7c3feb1, 2024-10-09)"
   sodipodi:docname="logo-horizontal-full-color-white.svg"
   inkscape:export-filename="logo-horizontal-full-color-white.png"
   inkscape:export-xdpi="172.39807"
   inkscape:export-ydpi="172.39807"
   xmlns:inkscape="http://www.inkscape.org/namespaces/inkscape"
   xmlns:sodipodi="http://sodipodi.sourceforge.net/DTD/sodipodi-0.dtd"
   xmlns="http://www.w3.org/2000/svg"
   xmlns:svg="http://www.w3.org/2000/svg">
  <sodipodi:namedview
     id="namedview1"
     pagecolor="#ffffff"
     bordercolor="#000000"
     borderopacity="0.25"
     inkscape:showpageshadow="2"
     inkscape:pageopacity="0.0"
     inkscape:pagecheckerboard="0"
     inkscape:deskcolor="#d1d1d1"
     inkscape:document-units="mm"
     inkscape:zoom="0.75544332"
     inkscape:cx="193.92587"
     inkscape:cy="461.98039"
     inkscape:window-width="1520"
     inkscape:window-height="963"
     inkscape:window-x="3360"
     inkscape:window-y="109"
     inkscape:window-maximized="0"
     inkscape:current-layer="layer1" />
  <defs
     id="defs1" />
  <g
     inkscape:label="Layer 1"
     inkscape:groupmode="layer"
     id="layer1"
     transform="translate(-61.772556,-13.810072)">
    <g
       id="g4"
       transform="matrix(0.26458333,0,0,0.26458333,-41.868186,-60.639522)">
      <path
         d="m 569.0409,451.24014 -21.89806,-21.26206 20.97538,-21.96768 c 0,0 4.08164,-2.86626 6.83483,-0.11307 2.75383,2.75383 -1.23154,10.18116 6.21001,14.44179 0,0 5.84624,3.10274 14.76421,-5.81587 8.91797,-8.91798 5.12968,-14.07802 5.12968,-14.07802 -4.26062,-7.44154 -11.68796,-3.45618 -14.44179,-6.21001 -2.75319,-2.75319 -0.0116,-6.87166 -0.0116,-6.87166 l 21.71427,-20.55318 61.66119,61.34311 -21.29277,21.29277 c 0,0 -2.74155,4.11847 0.0116,6.87165 2.75383,2.75383 10.18116,-1.23153 14.44178,6.20937 0,0 3.7883,5.16069 -5.12967,14.07866 -8.91797,8.91797 -14.76421,5.81587 -14.76421,5.81587 -7.44155,-4.26062 -3.45618,-11.68795 -6.21002,-14.44179 -2.75318,-2.75318 -6.87165,-0.0116 -6.87165,-0.0116 l -21.3548,21.3548 -21.38,-21.55704 c 0,0 -3.93044,-2.69568 -6.67394,0.0485 -2.74414,2.74414 1.26643,10.18505 -6.16026,14.42047 0,0 -5.8359,3.08207 -14.78489,-5.86692 -8.94833,-8.94898 -5.17813,-14.0961 -5.17813,-14.0961 4.23542,-7.42669 11.67633,-3.41612 14.42047,-6.15962 2.74414,-2.74414 -0.0116,-6.8723 -0.0116,-6.8723 z"
         fill="#127be8"
         id="path1-4-3"
         sodipodi:nodetypes="cccscccsccccscscsccccccccc"
         style="stroke-width:0.646136" />
      <path
         d="m 463.19218,390.35603 22.36083,-22.36052 21.46464,21.46433 c 0,0 2.89189,4.14866 0.10317,6.93738 -2.78937,2.78937 -10.32267,-1.25803 -14.63563,6.28238 0,0 -3.13958,5.92377 5.90956,14.97356 9.04913,9.04913 14.27767,5.21302 14.27767,5.21302 7.53976,-4.31296 3.49301,-11.84626 6.28173,-14.63498 2.78937,-2.78937 6.96664,-0.006 6.96664,-0.006 l 21.23853,21.75181 -62.51499,62.7363 -21.58784,-21.61371 c 0,0 -4.17792,-2.78291 -6.96664,0.006 -2.78937,2.78937 1.25803,10.32267 -6.28225,14.63499 0,0 -5.22815,3.83611 -14.27741,-5.21303 -9.0492,-9.04914 -5.90937,-14.97356 -5.90937,-14.97356 4.31289,-7.54041 11.84626,-3.49301 14.63518,-6.28173 2.78898,-2.78937 0.006,-6.96664 0.006,-6.96664 l -21.66907,-21.66883 21.83494,-21.65526 c 0,0 2.72908,-3.98213 -0.0553,-6.76633 -2.7844,-2.7842 -10.32442,1.27483 -14.6249,-6.25783 0,0 -3.13015,-5.91925 5.93398,-14.98325 9.06413,-9.06464 14.28594,-5.23693 14.28594,-5.23693 7.53343,4.30068 3.47376,11.84044 6.25796,14.62464 2.7842,2.78485 6.96664,-0.006 6.96664,-0.006 z"
         fill="#0e5fb5"
         id="path2-3-5"
         sodipodi:nodetypes="cccscccsccccscccccccsccccc"
         style="fill:#0b4a8c;fill-opacity:1;stroke-width:0.646136" />
      <path
         d="m 507.38531,389.89986 -21.83424,-21.90213 20.91155,-21.32769 c 0,0 4.08165,-2.86645 6.83483,-0.11294 2.75383,2.75344 -1.23153,10.18078 6.21002,14.44166 0,0 5.84623,3.10236 14.7642,-5.81574 8.91798,-8.9181 5.12968,-14.07853 5.12968,-14.07853 -4.26062,-7.44149 -11.68796,-3.45606 -14.44179,-6.20956 -2.75318,-2.75345 -0.0116,-6.87192 -0.0116,-6.87192 l 21.37351,-21.21183 62.00192,62.00196 -21.29276,21.29283 c 0,0 -2.02835,3.80877 0.72484,6.5626 0.63335,0.6332 1.5366,0.58039 2.59453,0.64504 0.997,0.0609 2.03492,0.0837 3.16927,0.226 0.41688,0.0523 0.86426,0.20809 1.3025,0.26324 2.60562,0.32791 4.83458,1.74087 6.85246,5.26528 0,0 3.59811,5.27956 -5.31986,14.19753 -8.91797,8.91797 -14.76421,5.81587 -14.76421,5.81587 -4.69059,-2.68598 -5.25522,-6.45855 -5.41518,-9.69689 -0.0498,-1.00883 -0.18364,-1.96897 -0.2633,-2.82682 -0.0703,-0.75715 -0.0543,-1.44092 -0.53153,-1.91808 -2.75319,-2.75318 -6.87166,-0.0116 -6.87166,-0.0116 l -21.3548,21.3548 -21.38,-21.55769 c 0,0 -3.93044,-2.69503 -6.67394,0.0491 -2.74414,2.74414 1.26643,10.18504 -6.16026,14.42046 0,0 -2.25423,1.93295 -6.10887,0.68579 -1.30062,-0.42082 -2.89766,-1.06205 -4.53757,-2.17729 -1.31994,-0.89765 -2.97009,-2.46515 -4.48046,-3.97564 -8.94899,-8.94898 -5.46369,-14.6101 -5.46369,-14.6101 0.86139,-1.51066 2.08392,-3.00498 3.14414,-3.72231 1.52997,-1.03513 3.82592,-1.46077 5.43148,-1.62277 2.75165,-0.27765 4.57827,0.16551 5.95841,-1.21496 0.84114,-0.84094 1.16554,-1.4693 1.21094,-2.41168 0.10272,-2.13202 -0.70856,-3.94597 -0.70856,-3.94597 z"
         fill="#b6d9ff"
         id="path3-6-2"
         sodipodi:nodetypes="cccccscccccccssscscssccccccssccsscsc"
         style="stroke-width:0.646136" />
    </g>
    <g
       id="g3"
       transform="matrix(0.26458333,0,0,0.26458333,-41.868186,-59.945245)">
      <text
         xml:space="preserve"
         style="font-weight:bold;font-size:77.8972px;font-family:'Fira Code';-inkscape-font-specification:'Fira Code Bold';text-align:start;writing-mode:lr-tb;direction:ltr;text-anchor:start;fill:#7790de;stroke-width:1.1414;paint-order:stroke fill markers"
         x="716.79224"
         y="381.2518"
         id="text4-5-2"><tspan
           sodipodi:role="line"
           id="tspan4-9-6"
           x="716.79224"
           y="381.2518"
           style="font-size:77.8972px;fill:#127be8;fill-opacity:1;stroke-width:1.1414">Open</tspan></text>
      <text
         xml:space="preserve"
         style="font-weight:bold;font-size:77.8972px;font-family:'Fira Code';-inkscape-font-specification:'Fira Code Bold';text-align:start;writing-mode:lr-tb;direction:ltr;text-anchor:start;fill:#0b4a8c;fill-opacity:1;stroke-width:1.76648;paint-order:stroke fill markers"
         x="711.30042"
         y="467.04633"
         id="text8-6"><tspan
           sodipodi:role="line"
           id="tspan8-7"
           x="711.30042"
           y="467.04633"
           style="font-size:77.8972px;stroke-width:1.76648">Everest</tspan></text>
    </g>
  </g>
</svg>
