<?xml version="1.0" encoding="UTF-8" standalone="no"?>
<!-- Created with Inkscape (http://www.inkscape.org/) -->

<svg
   width="180.05528mm"
   height="62.641666mm"
   viewBox="0 0 180.05528 62.641667"
   version="1.1"
   id="svg1"
   inkscape:version="1.4 (e7c3feb1, 2024-10-09)"
   sodipodi:docname="logo-horizontal-full-color-dark.svg"
   inkscape:export-filename="logo-horizontal-full-color-dark.png"
   inkscape:export-xdpi="152.43637"
   inkscape:export-ydpi="152.43637"
   xmlns:inkscape="http://www.inkscape.org/namespaces/inkscape"
   xmlns:sodipodi="http://sodipodi.sourceforge.net/DTD/sodipodi-0.dtd"
   xmlns="http://www.w3.org/2000/svg"
   xmlns:svg="http://www.w3.org/2000/svg">
  <sodipodi:namedview
     id="namedview1"
     pagecolor="#ffffff"
     bordercolor="#000000"
     borderopacity="0.25"
     inkscape:showpageshadow="2"
     inkscape:pageopacity="0.0"
     inkscape:pagecheckerboard="0"
     inkscape:deskcolor="#d1d1d1"
     inkscape:document-units="mm"
     inkscape:zoom="0.53417909"
     inkscape:cx="176.90696"
     inkscape:cy="488.60018"
     inkscape:window-width="1800"
     inkscape:window-height="1097"
     inkscape:window-x="3360"
     inkscape:window-y="109"
     inkscape:window-maximized="0"
     inkscape:current-layer="layer1" />
  <defs
     id="defs1" />
  <g
     inkscape:label="Layer 1"
     inkscape:groupmode="layer"
     id="layer1"
     transform="translate(6.7814374,-27.255935)">
    <g
       id="g2"
       transform="matrix(0.26458333,0,0,0.26458333,-134.83978,-226.74407)">
      <path
         d="m 667.5527,1133.017 -21.8981,-21.2621 20.9754,-21.9677 c 0,0 4.0816,-2.8662 6.8348,-0.113 2.7539,2.7538 -1.2315,10.1811 6.21,14.4417 0,0 5.8463,3.1028 14.7643,-5.8158 8.9179,-8.918 5.1296,-14.078 5.1296,-14.078 -4.2606,-7.4416 -11.6879,-3.4562 -14.4418,-6.2101 -2.7531,-2.7531 -0.012,-6.8716 -0.012,-6.8716 l 21.7143,-20.5532 61.6612,61.3431 -21.2928,21.2928 c 0,0 -2.7415,4.1185 0.012,6.8716 2.7539,2.7539 10.1812,-1.2315 14.4418,6.2094 0,0 3.7883,5.1607 -5.1297,14.0787 -8.9179,8.9179 -14.7642,5.8158 -14.7642,5.8158 -7.4415,-4.2606 -3.4561,-11.6879 -6.21,-14.4418 -2.7532,-2.7531 -6.8716,-0.012 -6.8716,-0.012 l -21.3548,21.3548 -21.38,-21.557 c 0,0 -3.9305,-2.6957 -6.674,0.049 -2.7441,2.7441 1.2665,10.1851 -6.1602,14.4205 0,0 -5.8359,3.082 -14.7849,-5.8669 -8.9484,-8.949 -5.1782,-14.0961 -5.1782,-14.0961 4.2355,-7.4267 11.6764,-3.4162 14.4205,-6.1597 2.7442,-2.7441 -0.012,-6.8723 -0.012,-6.8723 z"
         fill="#127be8"
         id="path1-4-2"
         sodipodi:nodetypes="cccscccsccccscscsccccccccc"
         style="fill:#b6d9ff;fill-opacity:1;stroke-width:0.646136" />
      <path
         d="m 561.704,1072.1329 22.3608,-22.3606 21.4646,21.4644 c 0,0 2.8919,4.1486 0.1032,6.9373 -2.7894,2.7894 -10.3227,-1.258 -14.6356,6.2824 0,0 -3.1396,5.9238 5.9095,14.9736 9.0492,9.0491 14.2777,5.213 14.2777,5.213 7.5398,-4.313 3.493,-11.8463 6.2817,-14.635 2.7894,-2.7893 6.9667,-0.01 6.9667,-0.01 l 21.2385,21.7518 -62.515,62.7363 -21.5878,-21.6137 c 0,0 -4.1779,-2.7829 -6.9667,0.01 -2.7893,2.7894 1.2581,10.3227 -6.2822,14.635 0,0 -5.2282,3.8361 -14.2774,-5.213 -9.0492,-9.0492 -5.9094,-14.9736 -5.9094,-14.9736 4.3129,-7.5404 11.8463,-3.493 14.6352,-6.2817 2.789,-2.7894 0.01,-6.9666 0.01,-6.9666 l -21.6691,-21.6689 21.835,-21.6552 c 0,0 2.729,-3.9822 -0.055,-6.7664 -2.7844,-2.7842 -10.3245,1.2749 -14.6249,-6.2578 0,0 -3.1302,-5.9192 5.9339,-14.9832 9.0642,-9.0647 14.286,-5.237 14.286,-5.237 7.5334,4.3007 3.4737,11.8405 6.2579,14.6247 2.7842,2.7848 6.9667,-0.01 6.9667,-0.01 z"
         fill="#0e5fb5"
         id="path2-3-9"
         sodipodi:nodetypes="cccscccsccccscccccccsccccc"
         style="fill:#1486ff;fill-opacity:1;stroke-width:0.646136" />
      <path
         d="m 605.8971,1071.6767 -21.8342,-21.9021 20.9115,-21.3277 c 0,0 4.0817,-2.8665 6.8348,-0.113 2.7539,2.7535 -1.2315,10.1808 6.2101,14.4417 0,0 5.8462,3.1023 14.7641,-5.8158 8.918,-8.9181 5.1297,-14.0785 5.1297,-14.0785 -4.2606,-7.4415 -11.6879,-3.456 -14.4418,-6.2095 -2.7531,-2.7535 -0.012,-6.872 -0.012,-6.872 l 21.3736,-21.21179 62.0019,62.00199 -21.2928,21.2928 c 0,0 -2.0283,3.8088 0.7248,6.5626 0.6334,0.6332 1.5367,0.5804 2.5946,0.645 0.997,0.061 2.0349,0.084 3.1693,0.226 0.4168,0.052 0.8642,0.2081 1.3024,0.2633 2.6057,0.3279 4.8346,1.7408 6.8525,5.2653 0,0 3.5981,5.2795 -5.3199,14.1975 -8.9179,8.9179 -14.7642,5.8158 -14.7642,5.8158 -4.6906,-2.6859 -5.2552,-6.4585 -5.4151,-9.6968 -0.05,-1.0089 -0.1837,-1.969 -0.2633,-2.8269 -0.07,-0.7571 -0.054,-1.4409 -0.5316,-1.918 -2.7532,-2.7532 -6.8716,-0.012 -6.8716,-0.012 l -21.3548,21.3548 -21.38,-21.5577 c 0,0 -3.9305,-2.6951 -6.674,0.049 -2.7441,2.7441 1.2665,10.185 -6.1602,14.4204 0,0 -2.2543,1.933 -6.1089,0.6858 -1.3006,-0.4208 -2.8977,-1.062 -4.5376,-2.1773 -1.3199,-0.8976 -2.9701,-2.4651 -4.4804,-3.9756 -8.949,-8.949 -5.4637,-14.6101 -5.4637,-14.6101 0.8614,-1.5107 2.0839,-3.005 3.1441,-3.7223 1.53,-1.0351 3.8259,-1.4608 5.4315,-1.6228 2.7517,-0.2776 4.5783,0.1655 5.9584,-1.2149 0.8412,-0.841 1.1656,-1.4693 1.211,-2.4117 0.1027,-2.132 -0.7086,-3.946 -0.7086,-3.946 z"
         fill="#b6d9ff"
         id="path3-6-8"
         sodipodi:nodetypes="cccccscccccccssscscssccccccssccsscsc"
         style="fill:#ffffff;fill-opacity:1;stroke-width:0.646136" />
    </g>
    <g
       id="g3"
       transform="matrix(0.26458333,0,0,0.26458333,-134.83978,-227.49929)">
      <text
         xml:space="preserve"
         style="font-weight:bold;font-size:77.8972px;font-family:'Fira Code';-inkscape-font-specification:'Fira Code Bold';text-align:start;writing-mode:lr-tb;direction:ltr;text-anchor:start;fill:#ffffff;fill-opacity:1;stroke-width:1.1414;paint-order:stroke fill markers"
         x="805.24744"
         y="1065.3459"
         id="text4-5-5"><tspan
           sodipodi:role="line"
           id="tspan4-9-2"
           x="805.24744"
           y="1065.3459"
           style="font-size:77.8972px;fill:#ffffff;fill-opacity:1;stroke-width:1.1414">Open</tspan></text>
      <text
         xml:space="preserve"
         style="font-weight:bold;font-size:77.8972px;font-family:'Fira Code';-inkscape-font-specification:'Fira Code Bold';text-align:start;writing-mode:lr-tb;direction:ltr;text-anchor:start;fill:#62aeff;fill-opacity:1;stroke-width:1.76648;paint-order:stroke fill markers"
         x="799.75562"
         y="1151.1405"
         id="text8-2"><tspan
           sodipodi:role="line"
           id="tspan8-7"
           x="799.75562"
           y="1151.1405"
           style="font-size:77.8972px;fill:#62aeff;fill-opacity:1;stroke-width:1.76648">Everest</tspan></text>
    </g>
  </g>
</svg>
